<?xml version="1.0" encoding="UTF-8" standalone="no"?>
<!-- Created with Inkscape (http://www.inkscape.org/) -->

<svg
   xmlns:dc="http://purl.org/dc/elements/1.1/"
   xmlns:cc="http://creativecommons.org/ns#"
   xmlns:rdf="http://www.w3.org/1999/02/22-rdf-syntax-ns#"
   xmlns:svg="http://www.w3.org/2000/svg"
   xmlns="http://www.w3.org/2000/svg"
   xmlns:sodipodi="http://sodipodi.sourceforge.net/DTD/sodipodi-0.dtd"
   xmlns:inkscape="http://www.inkscape.org/namespaces/inkscape"
   width="185"
   height="165"
   viewBox="0 0 48.947915 43.656251"
   version="1.1"
   id="svg8"
   sodipodi:docname="logo.svg"
   inkscape:export-filename="/home/tim/tg/crossbar/img/logo.png"
   inkscape:export-xdpi="100.15135"
   inkscape:export-ydpi="100.15135"
   inkscape:version="0.92.4 (5da689c313, 2019-01-14)">
  <defs
     id="defs2" />
  <sodipodi:namedview
     id="base"
     pagecolor="#ffffff"
     bordercolor="#666666"
     borderopacity="1.0"
     inkscape:pageopacity="0.0"
     inkscape:pageshadow="2"
     inkscape:zoom="1.979899"
     inkscape:cx="82.417458"
     inkscape:cy="97.072209"
     inkscape:document-units="mm"
     inkscape:current-layer="g5442"
     showgrid="false"
     units="px"
     inkscape:snap-global="false"
     inkscape:snap-nodes="true"
     inkscape:snap-object-midpoints="true"
     inkscape:window-width="1850"
     inkscape:window-height="1136"
     inkscape:window-x="70"
     inkscape:window-y="27"
     inkscape:window-maximized="1" />
  <metadata
     id="metadata5">
    <rdf:RDF>
      <cc:Work
         rdf:about="">
        <dc:format>image/svg+xml</dc:format>
        <dc:type
           rdf:resource="http://purl.org/dc/dcmitype/StillImage" />
        <dc:title></dc:title>
      </cc:Work>
    </rdf:RDF>
  </metadata>
  <g
     inkscape:label="Layer 1"
     inkscape:groupmode="layer"
     id="layer1"
     transform="translate(0,-253.34374)">
    <g
       id="g5442"
       transform="translate(-2.2523529,9.7571183)">
      <path
         inkscape:connector-curvature="0"
         id="path5624"
         d="M 24.159616,261.92102 46.46808,257.80713"
         style="fill:none;stroke:#07a0c3;stroke-width:0.69999993;stroke-linecap:butt;stroke-linejoin:miter;stroke-miterlimit:4;stroke-dasharray:none;stroke-opacity:1" />
      <path
         style="fill:none;stroke:#07a0c3;stroke-width:0.69999993;stroke-linecap:butt;stroke-linejoin:miter;stroke-miterlimit:4;stroke-dasharray:none;stroke-opacity:1"
         d="M 24.426886,262.9901 46.73535,258.87621"
         id="path5626"
         inkscape:connector-curvature="0" />
      <path
         inkscape:connector-curvature="0"
         id="path5628"
         d="m 24.894608,264.05918 22.308464,-4.11389"
         style="fill:none;stroke:#07a0c3;stroke-width:0.69999993;stroke-linecap:butt;stroke-linejoin:miter;stroke-miterlimit:4;stroke-dasharray:none;stroke-opacity:1" />
      <path
         style="fill:none;stroke:#07a0c3;stroke-width:0.69999993;stroke-linecap:butt;stroke-linejoin:miter;stroke-miterlimit:4;stroke-dasharray:none;stroke-opacity:1"
         d="M 25.963686,266.19734 48.27215,262.08345"
         id="path5630"
         inkscape:connector-curvature="0" />
      <path
         style="fill:none;stroke:#07a0c3;stroke-width:0.69999987;stroke-linecap:butt;stroke-linejoin:miter;stroke-miterlimit:4;stroke-dasharray:none;stroke-opacity:1"
         d="m 24.62597,265.38786 -5.858604,16.05957"
         id="path5316"
         inkscape:connector-curvature="0" />
      <path
         style="fill:none;stroke:#07a0c3;stroke-width:0.69999987;stroke-linecap:butt;stroke-linejoin:miter;stroke-miterlimit:4;stroke-dasharray:none;stroke-opacity:1"
         d="M 35.483384,278.46475 24.62597,265.38786"
         id="path5318"
         inkscape:connector-curvature="0" />
      <path
         style="fill:none;stroke:#07a0c3;stroke-width:0.69999993;stroke-linecap:butt;stroke-linejoin:miter;stroke-miterlimit:4;stroke-dasharray:none;stroke-opacity:1"
         d="M 7.9100171,268.3708 24.626015,265.38812"
         id="path5320"
         inkscape:connector-curvature="0" />
      <path
         style="fill:none;stroke:#07a0c3;stroke-width:0.69999993;stroke-linecap:butt;stroke-linejoin:miter;stroke-miterlimit:4;stroke-dasharray:none;stroke-opacity:1"
         d="m 13.765925,251.92136 10.862839,13.48217"
         id="path5322"
         inkscape:connector-curvature="0" />
      <path
         style="fill:none;stroke:#07a0c3;stroke-width:0.69999993;stroke-linecap:butt;stroke-linejoin:miter;stroke-miterlimit:4;stroke-dasharray:none;stroke-opacity:1"
         d="m 30.481923,248.93868 -5.853159,16.46485"
         id="path5324"
         inkscape:connector-curvature="0" />
      <path
         style="fill:none;stroke:#07a0c3;stroke-width:0.69999993;stroke-linecap:butt;stroke-linejoin:miter;stroke-miterlimit:4;stroke-dasharray:none;stroke-opacity:1"
         d="M 24.627338,265.26189 46.935802,261.148"
         id="path5326"
         inkscape:connector-curvature="0" />
      <path
         transform="matrix(0.03190336,0.8703776,0.8703776,-0.03190336,-205.32421,253.08538)"
         inkscape:transform-center-y="-0.56743164"
         inkscape:transform-center-x="1.0534012"
         d="m 29.266012,267.60035 -6.442907,2.60682 -5.479025,-4.27632 0.963882,-6.88313 6.442908,-2.60682 5.479025,4.27632 z"
         inkscape:randomized="0"
         inkscape:rounded="0"
         inkscape:flatsided="true"
         sodipodi:arg2="1.1863283"
         sodipodi:arg1="0.66272951"
         sodipodi:r2="3.4751463"
         sodipodi:r1="6.9502921"
         sodipodi:cy="263.32404"
         sodipodi:cx="23.786987"
         sodipodi:sides="6"
         id="path5336"
         style="opacity:1;fill:#dd1c1a;fill-opacity:1;stroke:none;stroke-width:0.11481555;stroke-miterlimit:4;stroke-dasharray:none;stroke-dashoffset:0;stroke-opacity:1"
         sodipodi:type="star" />
      <text
         xml:space="preserve"
         style="font-style:normal;font-variant:normal;font-weight:normal;font-stretch:normal;font-size:10.49370003px;line-height:1.25;font-family:Comfortaa;-inkscape-font-specification:Comfortaa;letter-spacing:0px;word-spacing:0px;fill:#ffffff;fill-opacity:1;stroke:none;stroke-width:0.26458332"
         x="21.394325"
         y="268.24344"
         id="text5409"><tspan
           sodipodi:role="line"
           id="tspan5407"
           x="21.394325"
           y="268.24344"
           style="fill:#ffffff;stroke-width:0.26458332">s</tspan></text>
      <g
         id="g5544"
         transform="matrix(0.25947712,0.07366789,-0.07366789,0.25947712,17.482406,201.39782)">
        <path
           sodipodi:nodetypes="ccccccccczcczccc"
           inkscape:connector-curvature="0"
           id="path5522"
           d="m 84.4039,174.05108 c 0,0 1.263629,2.48927 2.466342,2.28882 l 14.109258,0.0668 c 2.93997,-0.26727 2.89018,-1.59969 2.89018,-1.59969 0.0668,-3.00678 2.14568,-5.81277 2.14568,-5.81277 l 7.87068,-8.36134 c 3.81609,-4.87739 -2.34816,-5.04311 -3.74733,-7.19301 -2.01906,-2.73363 -0.92453,-4.49182 -2.48927,-6.03615 -1.41614,-1.96115 -3.56636,-1.29252 -6.23661,-1.7009 -2.276212,-0.2866 -4.644182,-3.34929 -6.992562,-3.40178 -2.348378,-0.0525 -4.207464,2.31958 -5.515047,3.07917 -4.143698,1.73781 -5.76703,-0.15657 -7.882145,1.70285 -1.670435,1.67044 -1.123087,2.12417 -1.878417,5.34505 -0.75533,3.22088 -4.914832,2.8337 -5.690605,5.23632 -0.370349,1.48627 9.815916,12.41786 9.815916,12.41786 0.377977,0.35782 0.755953,2.64583 1.13393,3.96875 z"
           style="fill:#fdf8e0;fill-opacity:1;stroke:#f0c808;stroke-width:1;stroke-linecap:butt;stroke-linejoin:miter;stroke-miterlimit:4;stroke-dasharray:none;stroke-opacity:1" />
        <path
           inkscape:connector-curvature="0"
           id="path5524"
           d="M 89.181766,169.91155 80.963228,155.47899"
           style="fill:none;stroke:#f0c808;stroke-width:1;stroke-linecap:butt;stroke-linejoin:miter;stroke-miterlimit:4;stroke-dasharray:none;stroke-opacity:1" />
        <path
           inkscape:connector-curvature="0"
           id="path5526"
           d="m 88.513593,149.06453 4.409948,19.97839"
           style="fill:none;stroke:#f0c808;stroke-width:1;stroke-linecap:butt;stroke-linejoin:miter;stroke-miterlimit:4;stroke-dasharray:none;stroke-opacity:1" />
        <path
           inkscape:connector-curvature="0"
           id="path5528"
           d="m 100.80799,149.06453 -4.810851,20.11203"
           style="fill:none;stroke:#f0c808;stroke-width:1;stroke-linecap:butt;stroke-linejoin:miter;stroke-miterlimit:4;stroke-dasharray:none;stroke-opacity:1" />
        <path
           inkscape:connector-curvature="0"
           id="path5530"
           d="m 107.95745,155.61263 -8.018086,14.03165"
           style="fill:none;stroke:#f0c808;stroke-width:1;stroke-linecap:butt;stroke-linejoin:miter;stroke-miterlimit:4;stroke-dasharray:none;stroke-opacity:1" />
      </g>
      <g
         transform="matrix(-0.25764704,0.07983316,0.07983316,0.25764704,26.015997,203.26618)"
         id="g5569"
         inkscape:transform-center-x="-1.2238681"
         inkscape:transform-center-y="0.76531264">
        <path
           style="fill:#fdf8e0;fill-opacity:1;stroke:#f0c808;stroke-width:1;stroke-linecap:butt;stroke-linejoin:miter;stroke-miterlimit:4;stroke-dasharray:none;stroke-opacity:1"
           d="m 84.4039,174.05108 c 0,0 1.263629,2.48927 2.466342,2.28882 l 14.109258,0.0668 c 2.93997,-0.26727 2.89018,-1.59969 2.89018,-1.59969 0.0668,-3.00678 2.14568,-5.81277 2.14568,-5.81277 l 7.87068,-8.36134 c 3.81609,-4.87739 -2.34816,-5.04311 -3.74733,-7.19301 -2.01906,-2.73363 -0.92453,-4.49182 -2.48927,-6.03615 -1.41614,-1.96115 -3.56636,-1.29252 -6.23661,-1.7009 -2.276212,-0.2866 -4.644182,-3.34929 -6.992562,-3.40178 -2.348378,-0.0525 -4.207464,2.31958 -5.515047,3.07917 -4.143698,1.73781 -5.76703,-0.15657 -7.882145,1.70285 -1.670435,1.67044 -1.123087,2.12417 -1.878417,5.34505 -0.75533,3.22088 -4.914832,2.8337 -5.690605,5.23632 -0.370349,1.48627 9.815916,12.41786 9.815916,12.41786 0.377977,0.35782 0.755953,2.64583 1.13393,3.96875 z"
           id="path5559"
           inkscape:connector-curvature="0"
           sodipodi:nodetypes="ccccccccczcczccc" />
        <path
           style="fill:none;stroke:#f0c808;stroke-width:1;stroke-linecap:butt;stroke-linejoin:miter;stroke-miterlimit:4;stroke-dasharray:none;stroke-opacity:1"
           d="M 89.181766,169.91155 80.963228,155.47899"
           id="path5561"
           inkscape:connector-curvature="0" />
        <path
           style="fill:none;stroke:#f0c808;stroke-width:1;stroke-linecap:butt;stroke-linejoin:miter;stroke-miterlimit:4;stroke-dasharray:none;stroke-opacity:1"
           d="m 88.513593,149.06453 4.409948,19.97839"
           id="path5563"
           inkscape:connector-curvature="0" />
        <path
           style="fill:none;stroke:#f0c808;stroke-width:1;stroke-linecap:butt;stroke-linejoin:miter;stroke-miterlimit:4;stroke-dasharray:none;stroke-opacity:1"
           d="m 100.80799,149.06453 -4.810851,20.11203"
           id="path5565"
           inkscape:connector-curvature="0" />
        <path
           style="fill:none;stroke:#f0c808;stroke-width:1;stroke-linecap:butt;stroke-linejoin:miter;stroke-miterlimit:4;stroke-dasharray:none;stroke-opacity:1"
           d="m 107.95745,155.61263 -8.018086,14.03165"
           id="path5567"
           inkscape:connector-curvature="0" />
      </g>
      <g
         inkscape:transform-center-y="1.2088261"
         inkscape:transform-center-x="-1.0482167"
         id="g5581"
         transform="matrix(-0.26595048,-0.04500751,-0.04500751,0.26595048,41.045332,228.96973)">
        <path
           sodipodi:nodetypes="ccccccccczcczccc"
           inkscape:connector-curvature="0"
           id="path5571"
           d="m 84.4039,174.05108 c 0,0 1.263629,2.48927 2.466342,2.28882 l 14.109258,0.0668 c 2.93997,-0.26727 2.89018,-1.59969 2.89018,-1.59969 0.0668,-3.00678 2.14568,-5.81277 2.14568,-5.81277 l 7.87068,-8.36134 c 3.81609,-4.87739 -2.34816,-5.04311 -3.74733,-7.19301 -2.01906,-2.73363 -0.92453,-4.49182 -2.48927,-6.03615 -1.41614,-1.96115 -3.56636,-1.29252 -6.23661,-1.7009 -2.276212,-0.2866 -4.644182,-3.34929 -6.992562,-3.40178 -2.348378,-0.0525 -4.207464,2.31958 -5.515047,3.07917 -4.143698,1.73781 -5.76703,-0.15657 -7.882145,1.70285 -1.670435,1.67044 -1.123087,2.12417 -1.878417,5.34505 -0.75533,3.22088 -4.914832,2.8337 -5.690605,5.23632 -0.370349,1.48627 9.815916,12.41786 9.815916,12.41786 0.377977,0.35782 0.755953,2.64583 1.13393,3.96875 z"
           style="fill:#fdf8e0;fill-opacity:1;stroke:#f0c808;stroke-width:1;stroke-linecap:butt;stroke-linejoin:miter;stroke-miterlimit:4;stroke-dasharray:none;stroke-opacity:1" />
        <path
           inkscape:connector-curvature="0"
           id="path5573"
           d="M 89.181766,169.91155 80.963228,155.47899"
           style="fill:none;stroke:#f0c808;stroke-width:1;stroke-linecap:butt;stroke-linejoin:miter;stroke-miterlimit:4;stroke-dasharray:none;stroke-opacity:1" />
        <path
           inkscape:connector-curvature="0"
           id="path5575"
           d="m 88.513593,149.06453 4.409948,19.97839"
           style="fill:none;stroke:#f0c808;stroke-width:1;stroke-linecap:butt;stroke-linejoin:miter;stroke-miterlimit:4;stroke-dasharray:none;stroke-opacity:1" />
        <path
           inkscape:connector-curvature="0"
           id="path5577"
           d="m 100.80799,149.06453 -4.810851,20.11203"
           style="fill:none;stroke:#f0c808;stroke-width:1;stroke-linecap:butt;stroke-linejoin:miter;stroke-miterlimit:4;stroke-dasharray:none;stroke-opacity:1" />
        <path
           inkscape:connector-curvature="0"
           id="path5579"
           d="m 107.95745,155.61263 -8.018086,14.03165"
           style="fill:none;stroke:#f0c808;stroke-width:1;stroke-linecap:butt;stroke-linejoin:miter;stroke-miterlimit:4;stroke-dasharray:none;stroke-opacity:1" />
      </g>
      <g
         transform="matrix(0.26595048,-0.04500751,0.04500751,0.26595048,-14.697765,243.20183)"
         id="g5593"
         inkscape:transform-center-x="1.0482172"
         inkscape:transform-center-y="1.2088261">
        <path
           style="fill:#fdf8e0;fill-opacity:1;stroke:#f0c808;stroke-width:1;stroke-linecap:butt;stroke-linejoin:miter;stroke-miterlimit:4;stroke-dasharray:none;stroke-opacity:1"
           d="m 84.4039,174.05108 c 0,0 1.263629,2.48927 2.466342,2.28882 l 14.109258,0.0668 c 2.93997,-0.26727 2.89018,-1.59969 2.89018,-1.59969 0.0668,-3.00678 2.14568,-5.81277 2.14568,-5.81277 l 7.87068,-8.36134 c 3.81609,-4.87739 -2.34816,-5.04311 -3.74733,-7.19301 -2.01906,-2.73363 -0.92453,-4.49182 -2.48927,-6.03615 -1.41614,-1.96115 -3.56636,-1.29252 -6.23661,-1.7009 -2.276212,-0.2866 -4.644182,-3.34929 -6.992562,-3.40178 -2.348378,-0.0525 -4.207464,2.31958 -5.515047,3.07917 -4.143698,1.73781 -5.76703,-0.15657 -7.882145,1.70285 -1.670435,1.67044 -1.123087,2.12417 -1.878417,5.34505 -0.75533,3.22088 -4.914832,2.8337 -5.690605,5.23632 -0.370349,1.48627 9.815916,12.41786 9.815916,12.41786 0.377977,0.35782 0.755953,2.64583 1.13393,3.96875 z"
           id="path5583"
           inkscape:connector-curvature="0"
           sodipodi:nodetypes="ccccccccczcczccc" />
        <path
           style="fill:none;stroke:#f0c808;stroke-width:1;stroke-linecap:butt;stroke-linejoin:miter;stroke-miterlimit:4;stroke-dasharray:none;stroke-opacity:1"
           d="M 89.181766,169.91155 80.963228,155.47899"
           id="path5585"
           inkscape:connector-curvature="0" />
        <path
           style="fill:none;stroke:#f0c808;stroke-width:1;stroke-linecap:butt;stroke-linejoin:miter;stroke-miterlimit:4;stroke-dasharray:none;stroke-opacity:1"
           d="m 88.513593,149.06453 4.409948,19.97839"
           id="path5587"
           inkscape:connector-curvature="0" />
        <path
           style="fill:none;stroke:#f0c808;stroke-width:1;stroke-linecap:butt;stroke-linejoin:miter;stroke-miterlimit:4;stroke-dasharray:none;stroke-opacity:1"
           d="m 100.80799,149.06453 -4.810851,20.11203"
           id="path5589"
           inkscape:connector-curvature="0" />
        <path
           style="fill:none;stroke:#f0c808;stroke-width:1;stroke-linecap:butt;stroke-linejoin:miter;stroke-miterlimit:4;stroke-dasharray:none;stroke-opacity:1"
           d="m 107.95745,155.61263 -8.018086,14.03165"
           id="path5591"
           inkscape:connector-curvature="0" />
      </g>
      <g
         inkscape:transform-center-y="0.82817183"
         inkscape:transform-center-x="-1.1974699"
         id="g5605"
         transform="matrix(-0.26703995,0.03801321,0.03801321,0.26703995,55.052278,233.31526)">
        <path
           sodipodi:nodetypes="ccccccccczcczccc"
           inkscape:connector-curvature="0"
           id="path5595"
           d="m 84.4039,174.05108 c 0,0 1.263629,2.48927 2.466342,2.28882 l 14.109258,0.0668 c 2.93997,-0.26727 2.89018,-1.59969 2.89018,-1.59969 0.0668,-3.00678 2.14568,-5.81277 2.14568,-5.81277 l 7.87068,-8.36134 c 3.81609,-4.87739 -2.34816,-5.04311 -3.74733,-7.19301 -2.01906,-2.73363 -0.92453,-4.49182 -2.48927,-6.03615 -1.41614,-1.96115 -3.56636,-1.29252 -6.23661,-1.7009 -2.276212,-0.2866 -4.644182,-3.34929 -6.992562,-3.40178 -2.348378,-0.0525 -4.207464,2.31958 -5.515047,3.07917 -4.143698,1.73781 -5.76703,-0.15657 -7.882145,1.70285 -1.670435,1.67044 -1.123087,2.12417 -1.878417,5.34505 -0.75533,3.22088 -4.914832,2.8337 -5.690605,5.23632 -0.370349,1.48627 9.815916,12.41786 9.815916,12.41786 0.377977,0.35782 0.755953,2.64583 1.13393,3.96875 z"
           style="fill:#fdf8e0;fill-opacity:1;stroke:#f0c808;stroke-width:1;stroke-linecap:butt;stroke-linejoin:miter;stroke-miterlimit:4;stroke-dasharray:none;stroke-opacity:1" />
        <path
           inkscape:connector-curvature="0"
           id="path5597"
           d="M 89.181766,169.91155 80.963228,155.47899"
           style="fill:none;stroke:#f0c808;stroke-width:1;stroke-linecap:butt;stroke-linejoin:miter;stroke-miterlimit:4;stroke-dasharray:none;stroke-opacity:1" />
        <path
           inkscape:connector-curvature="0"
           id="path5599"
           d="m 88.513593,149.06453 4.409948,19.97839"
           style="fill:none;stroke:#f0c808;stroke-width:1;stroke-linecap:butt;stroke-linejoin:miter;stroke-miterlimit:4;stroke-dasharray:none;stroke-opacity:1" />
        <path
           inkscape:connector-curvature="0"
           id="path5601"
           d="m 100.80799,149.06453 -4.810851,20.11203"
           style="fill:none;stroke:#f0c808;stroke-width:1;stroke-linecap:butt;stroke-linejoin:miter;stroke-miterlimit:4;stroke-dasharray:none;stroke-opacity:1" />
        <path
           inkscape:connector-curvature="0"
           id="path5603"
           d="m 107.95745,155.61263 -8.018086,14.03165"
           style="fill:none;stroke:#f0c808;stroke-width:1;stroke-linecap:butt;stroke-linejoin:miter;stroke-miterlimit:4;stroke-dasharray:none;stroke-opacity:1" />
      </g>
      <g
         id="g5637"
         transform="translate(-2.271791,0.60135644)">
        <path
           style="fill:#9aeafa;fill-opacity:1;stroke:#07a0c3;stroke-width:0.26973197;stroke-linecap:butt;stroke-linejoin:miter;stroke-miterlimit:4;stroke-dasharray:none;stroke-opacity:1"
           d="m 43.466109,262.13239 c 0,0 0.144504,0.739 0.471347,0.77559 l 3.656108,1.05673 c 0.782545,0.14723 0.867782,-0.20217 0.867782,-0.20217 0.238836,-0.77527 0.984969,-1.35021 0.984969,-1.35021 l 2.658224,-1.58976 c 1.349495,-0.98445 -0.237779,-1.48156 -0.442453,-2.14248 -0.322519,-0.85806 0.09101,-1.23364 -0.201238,-1.74962 -0.222982,-0.6132 -0.830171,-0.59811 -1.492956,-0.90079 -0.569511,-0.24205 -0.958324,-1.21119 -1.563808,-1.39781 -0.605482,-0.18662 -1.262619,0.29192 -1.657864,0.39269 -1.203216,0.14567 -1.484878,-0.46547 -2.170682,-0.13881 -0.556497,0.31039 -0.447898,0.46844 -0.881165,1.24854 -0.433266,0.7801 -1.484039,0.37322 -1.86233,0.93949 -0.205587,0.35837 1.632208,3.94527 1.632208,3.94527 0.07172,0.12069 0.0012,0.74222 0.0019,1.11334 z"
           id="path5607"
           inkscape:connector-curvature="0"
           sodipodi:nodetypes="ccccccccczcczccc" />
        <path
           style="fill:none;stroke:#07a0c3;stroke-width:0.26973197;stroke-linecap:butt;stroke-linejoin:miter;stroke-miterlimit:4;stroke-dasharray:none;stroke-opacity:1"
           d="M 45.010806,261.41025 43.9415,257.05989"
           id="path5609"
           inkscape:connector-curvature="0" />
        <path
           style="fill:none;stroke:#07a0c3;stroke-width:0.26973197;stroke-linecap:butt;stroke-linejoin:miter;stroke-miterlimit:4;stroke-dasharray:none;stroke-opacity:1"
           d="m 46.373187,255.9517 -0.327485,5.50881"
           id="path5611"
           inkscape:connector-curvature="0" />
        <path
           style="fill:none;stroke:#07a0c3;stroke-width:0.26973197;stroke-linecap:butt;stroke-linejoin:miter;stroke-miterlimit:4;stroke-dasharray:none;stroke-opacity:1"
           d="m 49.563302,256.85741 -2.729917,4.8642"
           id="path5613"
           inkscape:connector-curvature="0" />
        <path
           style="fill:none;stroke:#07a0c3;stroke-width:0.26973197;stroke-linecap:butt;stroke-linejoin:miter;stroke-miterlimit:4;stroke-dasharray:none;stroke-opacity:1"
           d="m 50.936038,259.08317 -3.114192,3.05022"
           id="path5615"
           inkscape:connector-curvature="0" />
      </g>
    </g>
  </g>
</svg>
